<svg xmlns="http://www.w3.org/2000/svg" viewBox="0 0 1200 650" role="img" aria-labelledby="title desc">
  <title id="title">Tocas UI dark mode preview</title>
  <desc id="desc">A dark interface preview with a blue hero panel and article cards.</desc>
  <rect width="1200" height="650" fill="#10131a"/>
  <rect x="70" y="60" width="1060" height="530" rx="18" fill="#181d27" stroke="#39475b"/>
  <rect x="70" y="60" width="1060" height="72" rx="18" fill="#202735"/>
  <circle cx="112" cy="96" r="10" fill="#ff6b6b"/>
  <circle cx="144" cy="96" r="10" fill="#ffd166"/>
  <circle cx="176" cy="96" r="10" fill="#78b7ff"/>
  <rect x="135" y="188" width="930" height="150" rx="14" fill="#263d5c"/>
  <rect x="135" y="224" width="330" height="22" rx="11" fill="#dce8f8" opacity=".9"/>
  <rect x="135" y="266" width="500" height="14" rx="7" fill="#b8c5d8" opacity=".65"/>
  <rect x="135" y="380" width="440" height="130" rx="14" fill="#202735" stroke="#39475b"/>
  <rect x="615" y="380" width="450" height="130" rx="14" fill="#202735" stroke="#39475b"/>
  <rect x="165" y="414" width="210" height="16" rx="8" fill="#dce8f8" opacity=".85"/>
  <rect x="645" y="414" width="220" height="16" rx="8" fill="#dce8f8" opacity=".85"/>
  <rect x="165" y="452" width="330" height="10" rx="5" fill="#96a1b3" opacity=".7"/>
  <rect x="645" y="452" width="350" height="10" rx="5" fill="#96a1b3" opacity=".7"/>
</svg>
